<svg xmlns="http://www.w3.org/2000/svg" width="36" height="36" fill="none" viewBox="0 0 36 36"><g clip-path="url(#clip0)"><path fill="#555" fill-rule="evenodd" d="M16 9H7H5V11V29V31H7H25H27V29V20H25V29H7V11H16V9Z" clip-rule="evenodd"/><path fill="#555" d="M30 7C30 6.44772 29.5523 6 29 6L20 6C19.4477 6 19 6.44772 19 7C19 7.55229 19.4477 8 20 8H28V16C28 16.5523 28.4477 17 29 17C29.5523 17 30 16.5523 30 16L30 7ZM18.7071 18.7071L29.7071 7.70711L28.2929 6.29289L17.2929 17.2929L18.7071 18.7071Z"/></g></svg>