<svg xmlns="http://www.w3.org/2000/svg" xmlns:svg="http://www.w3.org/2000/svg" x="0" y="0" fill="#767676" version="1.1" viewBox="0 0 16 16"><g><g><g><g><path style="text-indent:0;text-transform:none;direction:ltr;block-progression:tb;baseline-shift:baseline;color:#000;enable-background:accumulate" fill="#767676" fill-opacity="1" fill-rule="nonzero" stroke="none" d="m 8,2 c 3.319631,0 6,2.6804 6,6 0,3.3197 -2.680369,6 -6,6 C 4.6803692,14 2,11.3197 2,8 2,4.6804 4.6803692,2 8,2 z M 5.5253906,4.8183594 4.8183594,5.5253906 7.2929688,8 4.8183594,10.476562 5.5253906,11.183594 8,8.7070312 10.476562,11.183594 11.183594,10.476562 8.7070312,8 11.183594,5.5253906 10.476562,4.8183594 8,7.2929688 z" display="inline" overflow="visible" transform="translate(0,-1036.3622) translate(-66.999329,19.499601) translate(67.012722,-18.496791) translate(0.0168932,-1.00281) translate(-0.0302862,1036.3622)" visibility="visible"/></g></g></g></g></svg>