<svg xmlns="http://www.w3.org/2000/svg" xmlns:xlink="http://www.w3.org/1999/xlink" x="0" y="0" version="1.1" viewBox="0 0 100 100" xml:space="preserve" style="enable-background:new 0 0 100 100"><g><path fill="#3eb995" d="M942-244.8c-24.2,0-43.8,19.6-43.8,43.8s19.6,43.8,43.8,43.8s43.8-19.6,43.8-43.8S966.2-244.8,942-244.8z M958-215.1 c4.1-0.1,6.2,4.9,3.3,7.8l-21.2,21.2c-1.3,1.3-3.5,1.3-4.8,0L924.6-197c-4.4-4.3,2.1-10.8,6.4-6.4l6,6c0.4,0.4,1.2,0.4,1.6,0 l16.4-16.4C955.7-214.6,956.8-215.1,958-215.1L958-215.1z" transform="translate(-893 251)"/></g></svg>