<svg xmlns="http://www.w3.org/2000/svg" xmlns:svg="http://www.w3.org/2000/svg" x="0" y="0" fill="#3DB995" version="1.1" viewBox="0 0 100 100"><g><path style="text-indent:0;text-transform:none;direction:ltr;block-progression:tb;baseline-shift:baseline;color:#000;enable-background:accumulate" fill="#3DB995" fill-opacity="1" stroke="none" marker="none" d="m 39.742776,973.37275 a 2.0001998,2.0001998 0 0 0 -0.9688,0.4062 L 6.7739762,998.77896 a 2.0001998,2.0001998 0 0 0 0,3.15634 l 31.9999998,24.9999 a 2.0001998,2.0001998 0 0 0 3.2188,-1.5625 l 0,-10.9687 c 5.3013,-0.052 30.4724,0.5408 48.6875,16.4687 a 2.0001998,2.0001998 0 0 0 3.2187,-2.125 c -8.3538,-25.738 -33.8298,-37.05564 -51.9062,-41.87494 l 0,-11.50001 a 2.0001998,2.0001998 0 0 0 -2.25,-2 z m -1.75,6.0625 0,8.93751 a 2.0001998,2.0001998 0 0 0 1.5,1.9375 c 15.8338,4.0084 37.7687,13.32864 47.7188,33.09364 -20.5711,-13.8572 -45.4525,-13.1185 -47.3126,-13.0311 a 2.0001998,2.0001998 0 0 0 -1.9062,2 l 0,8.9061 -26.75,-20.9061 26.75,-20.93755 z" display="inline" overflow="visible" transform="translate(0,-952.36218)" visibility="visible"/></g></svg>